<?xml version="1.0" encoding="iso-8859-1"?>
<!-- Uploaded to: SVG Repo, www.svgrepo.com, Generator: SVG Repo Mixer Tools -->
<svg version="1.1" id="Layer_1" xmlns="http://www.w3.org/2000/svg" xmlns:xlink="http://www.w3.org/1999/xlink" 
	 viewBox="0 0 502.4 502.4" xml:space="preserve">
<ellipse style="fill:#F7D95C;" cx="251.2" cy="75.6" rx="95.2" ry="68"/>
<path style="fill:#EDCD48;" d="M346.4,75.6c0,37.6-42.4,68-95.2,68s-95.2-30.4-95.2-68"/>
<path style="fill:#BC7313;" d="M432.8,329.2c0,36-20,65.6-54.4,65.6S324,365.2,324,329.2s20-65.6,54.4-65.6S432.8,293.2,432.8,329.2
	z"/>
<g>
	<polygon style="fill:#EFD0A3;" points="36,501.2 63.2,467.6 20.8,466.8 0,501.2 	"/>
	<polygon style="fill:#EFD0A3;" points="48.8,473.2 19.2,473.2 19.2,373.2 52,373.2 	"/>
</g>
<polygon style="fill:#EAAC6E;" points="199.2,473.2 227.2,473.2 227.2,373.2 196.8,373.2 "/>
<polygon style="fill:#EFBF8B;" points="167.2,389.2 84,389.2 100.8,317.2 150.4,317.2 "/>
<g>
	<path style="fill:#00233F;" d="M74.4,236.4c0,0,5.6,56.8,0.8,68.8c0,0,12-3.2,27.2-4l15.2-17.6l-2.4-56L74.4,236.4z"/>
	<path style="fill:#00233F;" d="M176.8,236.4c0,0-5.6,56.8-0.8,68.8c0,0-12-3.2-27.2-4l-15.2-17.6l2.4-56L176.8,236.4z"/>
	<path style="fill:#00233F;" d="M175.2,213.2c0,32,13.6,40-40,40H116c-21.6,0-40-18.4-40-40l0,0c0-21.6,17.6-40,40-40h19.2
		C156.8,173.2,175.2,191.6,175.2,213.2L175.2,213.2z"/>
</g>
<rect x="99.2" y="269.2" style="fill:#EFBF8B;" width="48" height="56"/>
<polygon style="fill:#EAAC6E;" points="152,326.8 125.6,342 100,269.2 150.4,269.2 "/>
<path style="fill:#EFD0A3;" d="M165.6,224.4c0,38.4-20,73.6-40,73.6c-20.8,0-40-35.2-40-73.6s20-45.6,40-45.6
	C146.4,179.6,165.6,186,165.6,224.4z"/>
<g>
	<path style="fill:#EFBF8B;" d="M125.6,179.6c20.8,0,40,6.4,40,45.6s-20,73.6-40,73.6"/>
	<polygon style="fill:#EFBF8B;" points="99.2,326.8 17.6,353.2 22.4,426 123.2,400.4 	"/>
</g>
<polyline style="fill:#EFD0A3;" points="17.6,353.2 22.4,426 123.2,400.4 "/>
<polygon style="fill:#EFBF8B;" points="152,326.8 232.8,353.2 228.8,426 127.2,400.4 "/>
<polyline style="fill:#EAAC6E;" points="232.8,353.2 228.8,426 127.2,400.4 "/>
<g>
	<path style="fill:#00233F;" d="M144.8,172.4c0,0,52,70.4-72.8,71.2c0,0-6.4-40.8,10.4-58.4c16.8-17.6,46.4-14.4,46.4-14.4
		L144.8,172.4z"/>
	<path style="fill:#00233F;" d="M116,171.6c0,0,11.2,60.8,62.4,67.2c0,0,8-36-6.4-52.8c-13.6-16.8-40.8-15.2-40.8-15.2L116,171.6z"
		/>
</g>
<path style="fill:#6FC11F;" d="M222.4,501.2c-6.4-56-47.2-104.8-96.8-104.8s-91.2,48.8-96.8,104.8H222.4z"/>
<path style="fill:#549E07;" d="M49.6,414.8c0-29.6,33.6-36.8,76-36.8c41.6,0,76,6.4,76,36.8s-34.4,54.4-76,54.4
	S49.6,445.2,49.6,414.8z"/>
<path style="fill:#6FC11F;" d="M49.6,414.8c0-29.6,33.6-36.8,76-36.8c41.6,0,76,6.4,76,36.8s-33.6,28-76,28
	C84,442.8,49.6,445.2,49.6,414.8z"/>
<path style="fill:#549E07;" d="M125.6,378.8c41.6,0,76,6.4,76,36.8s-34.4,53.6-76,53.6"/>
<path style="fill:#6FC11F;" d="M80.8,407.6c0.8,1.6-0.8,3.2-2.4,3.2l0,0c-1.6,0.8-3.2,0-4-1.6l-20.8-68.8c-0.8-1.6,0.8-3.2,2.4-3.2
	l0,0c1.6-0.8,3.2,0,4,1.6L80.8,407.6z"/>
<path style="fill:#549E07;" d="M170.4,407.6c-0.8,1.6,0.8,3.2,2.4,3.2l0,0c1.6,0.8,3.2,0,4-1.6l20.8-68.8c0.8-1.6-0.8-3.2-2.4-3.2
	l0,0c-1.6-0.8-3.2,0-4,1.6L170.4,407.6z"/>
<g>
	<path style="fill:#A8E264;" d="M161.6,389.2c0,3.2-16,0-36,0s-36,3.2-36,0s16-6.4,36-6.4S161.6,386,161.6,389.2z"/>
	
		<ellipse transform="matrix(0.3443 -0.9389 0.9389 0.3443 -401.5038 354.1216)" style="fill:#A8E264;" cx="52.768" cy="464.502" rx="20.001" ry="7.2"/>
	<circle style="fill:#A8E264;" cx="40.8" cy="495.6" r="4"/>
	
		<ellipse transform="matrix(-0.4187 -0.9081 0.9081 -0.4187 -258.3526 625.8553)" style="fill:#A8E264;" cx="71.13" cy="395.614" rx="3.2" ry="12.8"/>
</g>
<polygon style="fill:#EAAC6E;" points="248.8,501.2 228,467.6 185.6,466.8 212.8,501.2 "/>
<path style="fill:#549E07;" d="M222.4,501.2c-6.4-56-43.2-100.8-99.2-100.8v100.8H222.4z"/>
<g>
	<polygon style="fill:#FCCCB9;" points="289.6,501.2 316.8,467.6 274.4,466.8 253.6,501.2 	"/>
	<polygon style="fill:#FCCCB9;" points="303.2,473.2 275.2,473.2 275.2,373.2 305.6,373.2 	"/>
</g>
<polygon style="fill:#EAA78C;" points="453.6,473.2 483.2,473.2 483.2,373.2 450.4,373.2 "/>
<polygon style="fill:#F9BDA0;" points="420.8,389.2 344,389.2 356,317.2 403.2,317.2 "/>
<g>
	<path style="fill:#BC7313;" d="M327.2,236.4c0,0,5.6,56.8,0.8,68.8c0,0,12-3.2,27.2-4l15.2-17.6l-2.4-56L327.2,236.4z"/>
	<path style="fill:#BC7313;" d="M429.6,236.4c0,0-5.6,56.8-0.8,68.8c0,0-12-3.2-27.2-4l-14.4-16.8l2.4-56L429.6,236.4z"/>
</g>
<rect x="355.2" y="269.2" style="fill:#F9BDA0;" width="48" height="56"/>
<polygon style="fill:#EAA78C;" points="405.6,326.8 379.2,342 353.6,269.2 404,269.2 "/>
<path style="fill:#FCCCB9;" d="M419.2,224.4c0,38.4-20,73.6-40,73.6c-20.8,0-40-35.2-40-73.6s20-45.6,40-45.6
	C399.2,179.6,419.2,186,419.2,224.4z"/>
<g>
	<path style="fill:#F9BDA0;" d="M379.2,179.6c20.8,0,40,6.4,40,45.6s-20,73.6-40,73.6"/>
	<polygon style="fill:#F9BDA0;" points="355.2,326 271.2,353.2 275.2,426 376.8,400.4 	"/>
</g>
<polyline style="fill:#FCCCB9;" points="271.2,353.2 275.2,426 376.8,400.4 "/>
<polygon style="fill:#F9BDA0;" points="405.6,326.8 486.4,353.2 482.4,426 380.8,400.4 "/>
<polyline style="fill:#EAA78C;" points="486.4,353.2 482.4,426 380.8,400.4 "/>
<g>
	<path style="fill:#CEA42E;" d="M397.6,172.4c0,0,10.4,71.2-72.8,71.2c0,0-6.4-40.8,10.4-58.4c16.8-17.6,46.4-14.4,46.4-14.4
		L397.6,172.4z"/>
	<path style="fill:#CEA42E;" d="M369.6,171.6c0,0,11.2,60.8,62.4,67.2c0,0,8-36-6.4-52.8c-14.4-16.8-40.8-15.2-40.8-15.2
		L369.6,171.6z"/>
</g>
<path style="fill:#D8462A;" d="M476,501.2c-6.4-56-47.2-104.8-96.8-104.8s-91.2,48.8-97.6,104.8H476z"/>
<path style="fill:#C91911;" d="M303.2,414.8c0-29.6,33.6-36.8,76-36.8c41.6,0,76,6.4,76,36.8s-34.4,54.4-76.8,54.4
	C336.8,469.2,303.2,445.2,303.2,414.8z"/>
<path style="fill:#D8462A;" d="M303.2,414.8c0-29.6,33.6-36.8,76-36.8c41.6,0,76,6.4,76,36.8s-33.6,28-76,28
	S303.2,445.2,303.2,414.8z"/>
<path style="fill:#C91911;" d="M378.4,378.8c41.6,0,76,6.4,76,36.8s-33.6,53.6-76,53.6"/>
<path style="fill:#D8462A;" d="M333.6,407.6c0.8,1.6-0.8,3.2-2.4,3.2l0,0c-1.6,0.8-3.2,0-4-1.6l-20-68.8c-0.8-1.6,0.8-3.2,2.4-3.2
	l0,0c1.6-0.8,3.2,0,4,1.6L333.6,407.6z"/>
<path style="fill:#C91911;" d="M424,407.6c-0.8,1.6,0.8,3.2,2.4,3.2l0,0c1.6,0.8,3.2,0,4-1.6l20.8-68.8c0.8-1.6-0.8-3.2-2.4-3.2l0,0
	c-1.6-0.8-3.2,0-4,1.6L424,407.6z"/>
<g>
	<path style="fill:#F46856;" d="M415.2,389.2c0,3.2-16,0-36,0s-36,3.2-36,0s16-6.4,36-6.4S415.2,386,415.2,389.2z"/>
	
		<ellipse transform="matrix(0.3444 -0.9388 0.9388 0.3444 -235.513 591.3115)" style="fill:#F46856;" cx="305.628" cy="464.285" rx="20" ry="7.2"/>
	<circle style="fill:#F46856;" cx="293.6" cy="495.6" r="4"/>
	
		<ellipse transform="matrix(-0.4187 -0.9081 0.9081 -0.4187 101.4543 855.9642)" style="fill:#F46856;" cx="324.68" cy="395.512" rx="3.2" ry="12.8"/>
</g>
<polygon style="fill:#EAA78C;" points="502.4,501.2 481.6,467.6 439.2,466.8 466.4,501.2 "/>
<path style="fill:#C91911;" d="M476,501.2c-6.4-56-48.8-100.8-96.8-100.8v100.8H476z"/>
<path style="fill:#6FC11F;" d="M180,75.6c0-32,29.6-59.2,71.2-69.6c-12-3.2-24-4.8-37.6-4.8c-60,0-108.8,32.8-108.8,73.6
	c0,28.8,23.2,52.8,58.4,65.6c-5.6,8.8-13.6,16.8-24.8,20.8c18.4,1.6,36-4.8,47.2-15.2c8.8,1.6,18.4,2.4,28,2.4
	c13.6,0,25.6-1.6,37.6-4.8C209.6,134,180,107.6,180,75.6z"/>
<path style="fill:#549E07;" d="M105.6,75.6c0,28.8,23.2,52.8,58.4,65.6c-5.6,8.8-13.6,16.8-24.8,20.8c18.4,1.6,36-4.8,47.2-15.2
	c8.8,1.6,18.4,2.4,28,2.4c13.6,0,25.6-1.6,37.6-4.8c-41.6-10.4-71.2-37.6-71.2-69.6"/>
<path style="fill:#D8462A;" d="M396.8,75.6C396.8,34.8,348,2,288,2c-13.6,0-25.6,1.6-37.6,4.8c41.6,10.4,71.2,37.6,71.2,69.6
	S292,135.6,250.4,146c12,3.2,24,4.8,37.6,4.8c9.6,0,19.2-0.8,28-2.4c11.2,10.4,28.8,16.8,47.2,15.2c-10.4-6.4-19.2-13.6-24-22.4
	C373.6,128.4,396.8,103.6,396.8,75.6z"/>
<path style="fill:#C91911;" d="M322.4,75.6c0,32-29.6,59.2-71.2,69.6c12,3.2,24,4.8,37.6,4.8c9.6,0,19.2-0.8,28-2.4
	c11.2,10.4,28.8,16.8,47.2,15.2c-11.2-5.6-20-12.8-24.8-21.6c34.4-12,58.4-36.8,58.4-65.6"/>
<path style="fill:#B52815;" d="M251.2,47.6c-8-8.8-13.6-14.4-24.8-14.4c-15.2,0-27.2,12-27.2,26.4c0,5.6,1.6,10.4,4.8,15.2l0,0l0,0
	l47.2,51.2V47.6z"/>
<path style="fill:#8C160A;" d="M251.2,47.6c8-8.8,14.4-14.4,24.8-14.4c15.2,0,27.2,12,27.2,26.4c0,5.6-1.6,10.4-4.8,15.2l0,0l0,0
	L251.2,126V47.6z"/>
<path style="fill:#D8462A;" d="M229.6,37.2c1.6,2.4-2.4,8-9.6,12.8s-13.6,5.6-15.2,3.2c-1.6-2.4,0.8-8,7.2-12.8
	C218.4,35.6,228,34,229.6,37.2z"/>
<path style="fill:#B52815;" d="M279.2,37.2c1.6,2.4-2.4,8-9.6,12.8s-13.6,5.6-15.2,3.2c-1.6-2.4,0.8-8,7.2-12.8
	C268.8,35.6,277.6,34,279.2,37.2z"/>
<circle style="fill:#D8462A;" cx="206.4" cy="61.2" r="3.2"/>
</svg>